<svg width="25" height="25" viewBox="0 0 25 25" fill="none" xmlns="http://www.w3.org/2000/svg">
<path fill-rule="evenodd" clip-rule="evenodd" d="M8.07364 1.2203C9.24664 1.1663 9.62064 1.1543 12.6086 1.1543C15.5966 1.1543 15.9706 1.1673 17.1426 1.2203C18.3146 1.2733 19.1146 1.4603 19.8146 1.7313C20.5476 2.0083 21.2126 2.4413 21.7626 3.0013C22.3226 3.5503 22.7546 4.2143 23.0306 4.9483C23.3026 5.6483 23.4886 6.4483 23.5426 7.6183C23.5966 8.7933 23.6086 9.1673 23.6086 12.1543C23.6086 15.1423 23.5956 15.5163 23.5426 16.6893C23.4896 17.8593 23.3026 18.6593 23.0306 19.3593C22.7546 20.0934 22.3219 20.7585 21.7626 21.3083C21.2126 21.8683 20.5476 22.3003 19.8146 22.5763C19.1146 22.8483 18.3146 23.0343 17.1446 23.0883C15.9706 23.1423 15.5966 23.1543 12.6086 23.1543C9.62064 23.1543 9.24664 23.1413 8.07364 23.0883C6.90364 23.0353 6.10364 22.8483 5.40364 22.5763C4.66956 22.3003 4.00446 21.8676 3.45464 21.3083C2.89502 20.759 2.46196 20.0942 2.18564 19.3603C1.91464 18.6603 1.72864 17.8603 1.67464 16.6903C1.62064 15.5153 1.60864 15.1413 1.60864 12.1543C1.60864 9.1663 1.62164 8.7923 1.67464 7.6203C1.72764 6.4483 1.91464 5.6483 2.18564 4.9483C2.46237 4.21438 2.89576 3.54961 3.45564 3.0003C4.00468 2.4408 4.66911 2.00774 5.40264 1.7313C6.10264 1.4603 6.90264 1.2743 8.07264 1.2203H8.07364ZM17.0536 3.2003C15.8936 3.1473 15.5456 3.1363 12.6086 3.1363C9.67164 3.1363 9.32364 3.1473 8.16364 3.2003C7.09064 3.2493 6.50864 3.4283 6.12064 3.5793C5.60764 3.7793 5.24064 4.0163 4.85564 4.4013C4.49069 4.75635 4.20982 5.18858 4.03364 5.6663C3.88264 6.0543 3.70364 6.6363 3.65464 7.7093C3.60164 8.8693 3.59064 9.2173 3.59064 12.1543C3.59064 15.0913 3.60164 15.4393 3.65464 16.5993C3.70364 17.6723 3.88264 18.2543 4.03364 18.6423C4.20964 19.1193 4.49064 19.5523 4.85564 19.9073C5.21064 20.2723 5.64364 20.5533 6.12064 20.7293C6.50864 20.8803 7.09064 21.0593 8.16364 21.1083C9.32364 21.1613 9.67064 21.1723 12.6086 21.1723C15.5466 21.1723 15.8936 21.1613 17.0536 21.1083C18.1266 21.0593 18.7086 20.8803 19.0966 20.7293C19.6096 20.5293 19.9766 20.2923 20.3616 19.9073C20.7266 19.5523 21.0076 19.1193 21.1836 18.6423C21.3346 18.2543 21.5136 17.6723 21.5626 16.5993C21.6156 15.4393 21.6266 15.0913 21.6266 12.1543C21.6266 9.2173 21.6156 8.8693 21.5626 7.7093C21.5136 6.6363 21.3346 6.0543 21.1836 5.6663C20.9836 5.1533 20.7466 4.7863 20.3616 4.4013C20.0066 4.03637 19.5743 3.75551 19.0966 3.5793C18.7086 3.4283 18.1266 3.2493 17.0536 3.2003ZM11.2036 15.5453C11.9883 15.8719 12.862 15.916 13.6756 15.67C14.4891 15.424 15.192 14.9032 15.6643 14.1965C16.1365 13.4899 16.3487 12.6412 16.2647 11.7954C16.1807 10.9496 15.8056 10.1593 15.2036 9.5593C14.8199 9.17577 14.3559 8.88211 13.845 8.69944C13.3341 8.51678 12.7891 8.44966 12.2491 8.50291C11.7092 8.55617 11.1878 8.72847 10.7224 9.00743C10.2571 9.28638 9.85939 9.66504 9.55795 10.1161C9.2565 10.5673 9.05883 11.0796 8.97916 11.6163C8.89949 12.1529 8.93979 12.7006 9.09718 13.2198C9.25457 13.739 9.52512 14.2169 9.88936 14.619C10.2536 15.0211 10.7025 15.3375 11.2036 15.5453ZM8.61064 8.1563C9.13567 7.63127 9.75896 7.2148 10.4449 6.93066C11.1309 6.64652 11.8661 6.50027 12.6086 6.50027C13.3511 6.50027 14.0864 6.64652 14.7723 6.93066C15.4583 7.2148 16.0816 7.63127 16.6066 8.1563C17.1317 8.68132 17.5481 9.30462 17.8323 9.99059C18.1164 10.6766 18.2627 11.4118 18.2627 12.1543C18.2627 12.8968 18.1164 13.632 17.8323 14.318C17.5481 15.004 17.1317 15.6273 16.6066 16.1523C15.5463 17.2126 14.1082 17.8083 12.6086 17.8083C11.1091 17.8083 9.67098 17.2126 8.61064 16.1523C7.55031 15.092 6.95462 13.6538 6.95462 12.1543C6.95462 10.6548 7.55031 9.21663 8.61064 8.1563ZM19.5166 7.3423C19.6467 7.21957 19.7509 7.07198 19.8229 6.90827C19.895 6.74456 19.9335 6.56807 19.9361 6.38923C19.9387 6.21039 19.9054 6.03284 19.8381 5.86711C19.7709 5.70137 19.6711 5.55081 19.5446 5.42434C19.4181 5.29786 19.2676 5.19805 19.1018 5.13081C18.9361 5.06357 18.7586 5.03027 18.5797 5.03288C18.4009 5.03549 18.2244 5.07395 18.0607 5.14599C17.897 5.21804 17.7494 5.32219 17.6266 5.4523C17.388 5.70533 17.2573 6.04142 17.2623 6.38923C17.2674 6.73704 17.4078 7.06918 17.6538 7.31514C17.8998 7.5611 18.2319 7.70153 18.5797 7.7066C18.9275 7.71167 19.2636 7.58099 19.5166 7.3423Z" fill="#010101"/>
</svg>
