<svg width="24" height="23" viewBox="0 0 24 23" fill="none" xmlns="http://www.w3.org/2000/svg">
<path d="M18.1232 16.2917V13.4167H15.2482V11.5H18.1232V8.625H20.0399V11.5H22.9149V13.4167H20.0399V16.2917H18.1232ZM11.4149 20.125L8.37217 17.3937C7.22217 16.3556 6.23604 15.4292 5.41379 14.6146C4.5909 13.8 3.91208 13.0333 3.37733 12.3146C2.84195 11.5958 2.45063 10.901 2.20338 10.2302C1.95549 9.55938 1.83154 8.8566 1.83154 8.12188C1.83154 6.62049 2.33467 5.3705 3.34092 4.37192C4.34717 3.37397 5.60099 2.875 7.10238 2.875C7.93293 2.875 8.72356 3.04654 9.47425 3.38962C10.2249 3.73335 10.8718 4.22465 11.4149 4.86354C11.9579 4.22465 12.6048 3.73335 13.3555 3.38962C14.1062 3.04654 14.8968 2.875 15.7274 2.875C17.085 2.875 18.2229 3.28613 19.141 4.10838C20.0597 4.93126 20.6308 5.89375 20.8545 6.99583C20.567 6.88403 20.2795 6.80001 19.992 6.74379C19.7045 6.68821 19.4249 6.66042 19.1534 6.66042C17.5402 6.66042 16.1666 7.22328 15.0326 8.349C13.8986 9.47536 13.3315 10.8451 13.3315 12.4583C13.3315 13.2889 13.4993 14.0754 13.8347 14.8177C14.1701 15.5608 14.6413 16.1958 15.2482 16.7229C14.9447 16.9944 14.5493 17.342 14.0618 17.7656C13.575 18.1885 13.1558 18.5597 12.8045 18.8792L11.4149 20.125Z" fill="#AF0112"/>
</svg>
