<svg width="35" height="34" viewBox="0 0 35 34" fill="none" xmlns="http://www.w3.org/2000/svg">
<g filter="url(#filter0_b_1026_488)">
<circle cx="17.5" cy="17" r="17" fill="#5B9B3E" fill-opacity="0.5"/>
</g>
<path d="M18.2335 24.0331C17.9668 23.7664 17.8388 23.4442 17.8495 23.0664C17.8611 22.6886 18.0002 22.3664 18.2668 22.0997L22.0335 18.3331H7.16683C6.78905 18.3331 6.47216 18.2051 6.21616 17.9491C5.96105 17.694 5.8335 17.3775 5.8335 16.9997C5.8335 16.622 5.96105 16.3051 6.21616 16.0491C6.47216 15.794 6.78905 15.6664 7.16683 15.6664H22.0335L18.2335 11.8664C17.9668 11.5997 17.8335 11.2829 17.8335 10.9157C17.8335 10.5495 17.9668 10.2331 18.2335 9.96641C18.5002 9.69974 18.817 9.56641 19.1842 9.56641C19.5504 9.56641 19.8668 9.69974 20.1335 9.96641L26.2335 16.0664C26.3668 16.1997 26.4615 16.3442 26.5175 16.4997C26.5726 16.6553 26.6002 16.822 26.6002 16.9997C26.6002 17.1775 26.5726 17.3442 26.5175 17.4997C26.4615 17.6553 26.3668 17.7997 26.2335 17.9331L20.1002 24.0664C19.8557 24.3108 19.5504 24.4331 19.1842 24.4331C18.817 24.4331 18.5002 24.2997 18.2335 24.0331Z" fill="#E0E0E0"/>
<defs>
<filter id="filter0_b_1026_488" x="-87.5" y="-88" width="210" height="210" filterUnits="userSpaceOnUse" color-interpolation-filters="sRGB">
<feFlood flood-opacity="0" result="BackgroundImageFix"/>
<feGaussianBlur in="BackgroundImageFix" stdDeviation="44"/>
<feComposite in2="SourceAlpha" operator="in" result="effect1_backgroundBlur_1026_488"/>
<feBlend mode="normal" in="SourceGraphic" in2="effect1_backgroundBlur_1026_488" result="shape"/>
</filter>
</defs>
</svg>
