<svg width="25" height="25" viewBox="0 0 25 25" fill="none" xmlns="http://www.w3.org/2000/svg">
<g clip-path="url(#clip0_1026_591)">
<path d="M24.2517 5.09089C23.4167 5.46089 22.5197 5.71089 21.5767 5.82389C22.5497 5.24168 23.2776 4.32535 23.6247 3.24589C22.7105 3.78888 21.71 4.17108 20.6667 4.37589C19.965 3.62675 19.0357 3.13021 18.023 2.96336C17.0102 2.79651 15.9708 2.96868 15.0659 3.45314C14.161 3.9376 13.4414 4.70725 13.0188 5.64259C12.5962 6.57793 12.4942 7.62664 12.7287 8.62589C10.8763 8.53288 9.06428 8.05143 7.41008 7.21279C5.75588 6.37415 4.2965 5.19705 3.12665 3.75789C2.72665 4.44789 2.49665 5.24789 2.49665 6.09989C2.49621 6.86688 2.68509 7.62213 3.04653 8.29862C3.40798 8.97511 3.93082 9.55192 4.56865 9.97789C3.82893 9.95435 3.10553 9.75447 2.45865 9.39489V9.45489C2.45858 10.5306 2.83069 11.5733 3.51184 12.4059C4.19299 13.2385 5.14123 13.8098 6.19565 14.0229C5.50944 14.2086 4.78999 14.236 4.09165 14.1029C4.38915 15.0285 4.96865 15.8379 5.74902 16.4178C6.52939 16.9977 7.47157 17.3191 8.44365 17.3369C6.79349 18.6323 4.75554 19.335 2.65765 19.3319C2.28604 19.332 1.91473 19.3103 1.54565 19.2669C3.67513 20.6361 6.15399 21.3627 8.68565 21.3599C17.2557 21.3599 21.9407 14.2619 21.9407 8.10589C21.9407 7.90589 21.9357 7.70389 21.9267 7.50389C22.8379 6.84486 23.6246 6.02878 24.2497 5.09389L24.2517 5.09089Z" fill="#010101"/>
</g>
<defs>
<clipPath id="clip0_1026_591">
<rect width="24" height="24" fill="white" transform="translate(0.608643 0.154297)"/>
</clipPath>
</defs>
</svg>
